<svg
  width="23"
  height="23"
  viewBox="0 0 23 23"
  fill="none"
  xmlns="http://www.w3.org/2000/svg"
>
  <path
    d="M2.24899 3.99899C1.78543 4.00084 1.34139 4.18581 1.0136 4.5136C0.685806 4.84139 0.500836 5.28543 0.498993 5.74899V17.249C0.500836 17.7126 0.685806 18.1566 1.0136 18.4844C1.34139 18.8122 1.78543 18.9971 2.24899 18.999H6.74899C6.8816 18.999 7.00878 18.9463 7.10255 18.8525C7.19631 18.7588 7.24899 18.6316 7.24899 18.499C7.24899 18.3664 7.19631 18.2392 7.10255 18.1454C7.00878 18.0517 6.8816 17.999 6.74899 17.999H2.24899C2.15005 18.0006 2.0518 17.9823 1.96008 17.9452C1.86835 17.9081 1.78502 17.8529 1.71505 17.7829C1.64508 17.713 1.5899 17.6296 1.55278 17.5379C1.51566 17.4462 1.49737 17.3479 1.49899 17.249V7.74899H21.499V17.249C21.5006 17.3479 21.4823 17.4462 21.4452 17.5379C21.4081 17.6296 21.3529 17.713 21.2829 17.7829C21.213 17.8529 21.1296 17.9081 21.0379 17.9452C20.9462 17.9823 20.8479 18.0006 20.749 17.999H8.74899C8.61638 17.999 8.48921 18.0517 8.39544 18.1454C8.30167 18.2392 8.24899 18.3664 8.24899 18.499C8.24899 18.6316 8.30167 18.7588 8.39544 18.8525C8.48921 18.9463 8.61638 18.999 8.74899 18.999H20.749C21.2126 18.9971 21.6566 18.8122 21.9844 18.4844C22.3122 18.1566 22.4971 17.7126 22.499 17.249V5.74899C22.4971 5.28543 22.3122 4.84139 21.9844 4.5136C21.6566 4.18581 21.2126 4.00084 20.749 3.99899H2.24899ZM2.24899 4.99899H20.749C20.8479 4.99737 20.9462 5.01566 21.0379 5.05278C21.1296 5.0899 21.213 5.14508 21.2829 5.21505C21.3529 5.28502 21.4081 5.36835 21.4452 5.46008C21.4823 5.5518 21.5006 5.65005 21.499 5.74899V6.74899H1.49899V5.74899C1.49737 5.65005 1.51566 5.5518 1.55278 5.46008C1.5899 5.36835 1.64508 5.28502 1.71505 5.21505C1.78502 5.14508 1.86835 5.0899 1.96008 5.05278C2.0518 5.01566 2.15005 4.99737 2.24899 4.99899V4.99899ZM3.449 9.24899C3.38334 9.25208 3.31893 9.26806 3.25945 9.29604C3.19996 9.32402 3.14657 9.36344 3.10233 9.41206C3.05808 9.46067 3.02384 9.51752 3.00156 9.57936C2.97929 9.6412 2.96941 9.70683 2.9725 9.77249C2.97558 9.83815 2.99157 9.90256 3.01955 9.96204C3.04753 10.0215 3.08695 10.0749 3.13556 10.1192C3.18417 10.1634 3.24102 10.1976 3.30286 10.2199C3.36471 10.2422 3.43033 10.2521 3.49599 10.249H5.99599C6.1286 10.249 6.25578 10.1963 6.34955 10.1025C6.44332 10.0088 6.49599 9.8816 6.49599 9.74899C6.49599 9.61638 6.44332 9.48921 6.34955 9.39544C6.25578 9.30167 6.1286 9.24899 5.99599 9.24899H3.449ZM8.199 9.24899C8.13334 9.25208 8.06893 9.26806 8.00945 9.29604C7.94996 9.32402 7.89657 9.36344 7.85233 9.41206C7.80808 9.46067 7.77384 9.51752 7.75156 9.57936C7.72929 9.6412 7.71941 9.70683 7.7225 9.77249C7.72558 9.83815 7.74157 9.90256 7.76955 9.96204C7.79753 10.0215 7.83695 10.0749 7.88556 10.1192C7.93417 10.1634 7.99102 10.1976 8.05286 10.2199C8.11471 10.2422 8.18033 10.2521 8.24599 10.249H12.746C12.8786 10.249 13.0058 10.1963 13.0995 10.1025C13.1933 10.0088 13.246 9.8816 13.246 9.74899C13.246 9.61638 13.1933 9.48921 13.0995 9.39544C13.0058 9.30167 12.8786 9.24899 12.746 9.24899H8.198H8.199ZM16.999 13.249C16.5349 13.249 16.0897 13.4334 15.7616 13.7616C15.4334 14.0897 15.249 14.5349 15.249 14.999C15.249 15.4631 15.4334 15.9082 15.7616 16.2364C16.0897 16.5646 16.5349 16.749 16.999 16.749C17.2611 16.7413 17.5179 16.6728 17.749 16.549C17.9801 16.6729 18.2369 16.7414 18.499 16.749C18.9631 16.749 19.4082 16.5646 19.7364 16.2364C20.0646 15.9082 20.249 15.4631 20.249 14.999C20.249 14.5349 20.0646 14.0897 19.7364 13.7616C19.4082 13.4334 18.9631 13.249 18.499 13.249C18.2368 13.2563 17.98 13.3248 17.749 13.449C17.5177 13.3246 17.2605 13.2562 16.998 13.249H16.999ZM16.999 14.249C17.1608 14.2489 17.3177 14.3039 17.444 14.405C17.5323 14.4697 17.639 14.5047 17.7485 14.5047C17.858 14.5047 17.9647 14.4697 18.053 14.405C18.1793 14.3039 18.3362 14.2489 18.498 14.249C18.6969 14.249 18.8877 14.328 19.0283 14.4687C19.169 14.6093 19.248 14.8001 19.248 14.999C19.248 15.1979 19.169 15.3887 19.0283 15.5293C18.8877 15.67 18.6969 15.749 18.498 15.749C18.3362 15.7491 18.1793 15.6941 18.053 15.593C17.9647 15.5282 17.858 15.4933 17.7485 15.4933C17.639 15.4933 17.5323 15.5282 17.444 15.593C17.3177 15.6941 17.1608 15.7491 16.999 15.749C16.8001 15.749 16.6093 15.67 16.4687 15.5293C16.328 15.3887 16.249 15.1979 16.249 14.999C16.249 14.8001 16.328 14.6093 16.4687 14.4687C16.6093 14.328 16.8001 14.249 16.999 14.249V14.249Z"
    fill="black"
    fill-opacity="0.75"
  />
</svg>
