<svg
  width="13"
  height="16"
  viewBox="0 0 13 16"
  fill="none"
  xmlns="http://www.w3.org/2000/svg"
>
  <path
    d="M6.03099 10.411L3.29799 7.667C3.19515 7.56405 3.13739 7.4245 3.13739 7.279C3.13739 7.13349 3.19515 6.99394 3.29799 6.891L3.76499 6.426C3.8681 6.3231 4.00782 6.26531 4.15349 6.26531C4.29916 6.26531 4.43887 6.3231 4.54199 6.426L6.42099 8.312L11.521 3.212C11.5718 3.16084 11.6323 3.12024 11.6989 3.09253C11.7655 3.06483 11.8369 3.05057 11.909 3.05057C11.9811 3.05057 12.0525 3.06483 12.1191 3.09253C12.1857 3.12024 12.2461 3.16084 12.297 3.212L12.763 3.677C12.814 3.7279 12.8545 3.78838 12.8821 3.85496C12.9098 3.92154 12.924 3.99291 12.924 4.065C12.924 4.13708 12.9098 4.20846 12.8821 4.27504C12.8545 4.34162 12.814 4.40209 12.763 4.453L6.80799 10.409C6.7572 10.4603 6.69676 10.5011 6.63016 10.529C6.56356 10.5569 6.49211 10.5713 6.4199 10.5715C6.3477 10.5717 6.27617 10.5576 6.20943 10.5301C6.14268 10.5025 6.08204 10.4621 6.03099 10.411V10.411Z"
    fill="white"
  />
  <path
    d="M11.527 7.70001C10.996 10.018 9.72699 12.089 6.74899 14.278C6.69525 14.3139 6.6321 14.333 6.56749 14.333C6.50289 14.333 6.43973 14.3139 6.38599 14.278C1.86399 10.963 1.28899 7.92001 1.23499 3.86801C1.23746 3.80529 1.25953 3.74493 1.29809 3.69542C1.33666 3.64591 1.38979 3.60974 1.44999 3.59201C3.19063 3.14023 4.85257 2.42676 6.37899 1.47601C6.43686 1.44405 6.50189 1.42729 6.56799 1.42729C6.6341 1.42729 6.69912 1.44405 6.75699 1.47601C7.8211 2.13301 8.94923 2.68016 10.124 3.10901C10.1875 3.128 10.2547 3.13033 10.3194 3.1158C10.384 3.10126 10.4438 3.07034 10.493 3.02601L11.152 2.36701C11.1727 2.35266 11.1885 2.33237 11.1973 2.30883C11.2062 2.28528 11.2077 2.2596 11.2016 2.23518C11.1956 2.21077 11.1822 2.18878 11.1633 2.17214C11.1445 2.1555 11.121 2.14499 11.096 2.14201C9.61977 1.66037 8.21667 0.978339 6.92599 0.115006C6.82143 0.0401747 6.69607 -6.10352e-05 6.56749 -6.10352e-05C6.43891 -6.10352e-05 6.31356 0.0401747 6.20899 0.115006C4.47685 1.27869 2.53903 2.10201 0.498993 2.54101C0.359061 2.56764 0.232713 2.64202 0.141523 2.75145C0.0503326 2.86088 -4.47232e-05 2.99857 -0.00100708 3.14101C-0.00100708 7.80001 0.456993 11.68 6.21699 15.667C6.31983 15.7382 6.44193 15.7763 6.56699 15.7763C6.69206 15.7763 6.81415 15.7382 6.91699 15.667C11.345 12.602 12.635 9.59901 12.997 6.25801C13.01 6.13501 12.949 6.10601 12.862 6.19401L11.734 7.32601C11.6362 7.43242 11.5652 7.56064 11.527 7.70001V7.70001Z"
    fill="white"
  />
</svg>
