<svg
  width="23"
  height="23"
  viewBox="0 0 23 23"
  xmlns="http://www.w3.org/2000/svg"
>
  <path
    d="M11.3142 16.9055C11.1589 16.9055 11.01 16.8438 10.9003 16.734C10.7905 16.6242 10.7288 16.4754 10.7288 16.3201C10.7288 16.1649 10.7905 16.016 10.9003 15.9062C11.01 15.7964 11.1589 15.7348 11.3142 15.7348H17.2311C18.0646 15.7124 18.8565 15.3656 19.4381 14.7682C20.0197 14.1708 20.3451 13.3699 20.3451 12.5362C20.3451 11.7024 20.0197 10.9015 19.4381 10.3041C18.8565 9.7067 18.0646 9.3599 17.2311 9.33755H3.48956L5.41512 11.2617C5.52434 11.3718 5.58562 11.5206 5.58562 11.6757C5.58562 11.8308 5.52434 11.9796 5.41512 12.0897C5.30472 12.1984 5.15603 12.2593 5.00112 12.2593C4.84622 12.2593 4.69752 12.1984 4.58712 12.0897L1.66842 9.16781C1.59366 9.09295 1.5418 8.99832 1.51892 8.89503C1.49228 8.79617 1.49206 8.69204 1.5183 8.59307C1.54454 8.4941 1.5963 8.40375 1.66842 8.33107L4.58574 5.41053C4.69621 5.30398 4.84409 5.24507 4.99755 5.24645C5.15102 5.24784 5.29781 5.30942 5.40633 5.41794C5.51485 5.52646 5.57643 5.67325 5.57782 5.82672C5.57921 5.98019 5.52029 6.12806 5.41374 6.23853L3.48634 8.16501H17.2311C18.3901 8.16501 19.5017 8.62542 20.3212 9.44495C21.1407 10.2645 21.6011 11.376 21.6011 12.535C21.6011 13.694 21.1407 14.8055 20.3212 15.6251C19.5017 16.4446 18.3901 16.905 17.2311 16.905L11.3142 16.9055Z"
    fill="black"
    fill-opacity="0.75"
  />
</svg>
