<svg
  width="24"
  height="22"
  viewBox="0 0 24 22"
  fill="none"
  xmlns="http://www.w3.org/2000/svg"
>
  <path
    d="M18.768 7.00473H16.7336C16.3413 7.00473 16.0275 7.28846 16.0275 7.64313C16.0275 7.99779 16.3413 8.28153 16.7336 8.28153H18.768C19.7669 8.28153 20.5827 9.01923 20.5827 9.92245V19.087C20.5827 19.9902 19.7669 20.7279 18.768 20.7279H6.22681C5.22791 20.7279 4.41206 19.9902 4.41206 19.087V9.91772C4.41206 9.0145 5.22791 8.2768 6.22681 8.2768H8.26122C8.65345 8.2768 8.96724 7.99306 8.96724 7.6384C8.96724 7.28373 8.65345 7 8.26122 7H6.22681C4.44866 7 3 8.3099 3 9.91772V19.0823C3 20.6901 4.44866 22 6.22681 22H18.7732C20.5513 22 22 20.6901 22 19.0823V9.91772C21.9948 8.3099 20.5461 7.00473 18.768 7.00473Z"
    fill="black"
    fill-opacity="0.75"
  />
  <path
    d="M8.17089 5.24069L11.0887 2.32291V13.2897C11.0887 13.667 11.3905 13.9689 11.7678 13.9689C12.1451 13.9689 12.4469 13.667 12.4469 13.2897V2.32291L15.3647 5.24069C15.4955 5.37148 15.6716 5.44191 15.8426 5.44191C16.0137 5.44191 16.1898 5.37651 16.3205 5.24069C16.5872 4.97406 16.5872 4.54645 16.3205 4.27983L12.2407 0.199969C11.9741 -0.0666562 11.5465 -0.0666562 11.2798 0.199969L7.19997 4.27983C6.93334 4.54645 6.93334 4.97406 7.19997 5.24069C7.47665 5.50731 7.90426 5.50731 8.17089 5.24069Z"
    fill="black"
    fill-opacity="0.75"
  />
</svg>
