<svg
  width="23"
  height="23"
  viewBox="0 0 23 23"
  fill="none"
  xmlns="http://www.w3.org/2000/svg"
>
  <path
    d="M11.356 0.98101C11.2875 0.980032 11.2196 0.992609 11.156 1.01801L1.32099 5.16101C1.21574 5.20512 1.128 5.28275 1.0714 5.38184C1.0148 5.48094 0.992514 5.59595 1.00799 5.70901V17.028C1.00774 17.1294 1.03726 17.2287 1.0929 17.3135C1.14854 17.3983 1.22785 17.4649 1.32099 17.505L11.156 21.648H11.167H11.172L11.218 21.663L11.255 21.672L11.292 21.678H11.305H11.383H11.42H11.425L11.466 21.671H11.471L11.508 21.661L11.55 21.645L21.384 17.503C21.4779 17.4635 21.558 17.3972 21.6144 17.3123C21.6708 17.2275 21.7009 17.1279 21.701 17.026V5.67801C21.7092 5.56946 21.683 5.46108 21.6261 5.36827C21.5692 5.27547 21.4845 5.20294 21.384 5.16101L16.651 3.16701C16.6192 3.14956 16.5857 3.13548 16.551 3.12501L11.551 1.01901C11.4874 0.993684 11.4194 0.981114 11.351 0.982013L11.356 0.98101ZM11.356 2.05801L15.068 3.62301L6.56799 7.20301L2.85799 5.64001L11.356 2.05801ZM16.403 4.18601L19.853 5.64001L11.353 9.22001L7.89999 7.76601L16.403 4.18601ZM2.03599 6.41801L10.836 10.125V20.392L2.03599 16.685V6.41801ZM20.672 6.41801V16.685L11.872 20.392V10.126L15.024 8.79801L20.672 6.41801ZM3.65099 12.989C3.63234 12.988 3.61364 12.988 3.59499 12.989C3.47784 12.9982 3.3673 13.047 3.28153 13.1273C3.19576 13.2077 3.13985 13.3148 3.12298 13.4311C3.10612 13.5474 3.1293 13.666 3.18872 13.7673C3.24815 13.8687 3.34028 13.9469 3.44999 13.989L5.40199 14.811C5.46515 14.8401 5.53352 14.8561 5.60302 14.8582C5.67251 14.8602 5.74171 14.8483 5.80649 14.8231C5.87127 14.7978 5.93031 14.7598 5.98008 14.7113C6.02986 14.6627 6.06936 14.6046 6.09622 14.5405C6.12308 14.4764 6.13675 14.4075 6.13643 14.338C6.1361 14.2685 6.12179 14.1997 6.09433 14.1358C6.06688 14.072 6.02685 14.0143 5.97662 13.9662C5.9264 13.9181 5.867 13.8806 5.80199 13.856L3.84999 13.034C3.78691 13.0062 3.71892 12.9912 3.64999 12.99L3.65099 12.989ZM3.65099 15.06C3.63234 15.059 3.61364 15.059 3.59499 15.06C3.47784 15.0692 3.3673 15.118 3.28153 15.1983C3.19576 15.2787 3.13985 15.3858 3.12298 15.5021C3.10612 15.6184 3.1293 15.737 3.18872 15.8383C3.24815 15.9397 3.34028 16.0179 3.44999 16.06L5.40199 16.881C5.46515 16.9101 5.53352 16.9261 5.60302 16.9282C5.67251 16.9302 5.74171 16.9183 5.80649 16.8931C5.87127 16.8678 5.93031 16.8298 5.98008 16.7812C6.02986 16.7327 6.06936 16.6746 6.09622 16.6105C6.12308 16.5464 6.13675 16.4775 6.13643 16.408C6.1361 16.3385 6.12179 16.2697 6.09433 16.2058C6.06688 16.142 6.02685 16.0843 5.97662 16.0362C5.9264 15.9881 5.867 15.9507 5.80199 15.926L3.84999 15.105C3.78701 15.0768 3.719 15.0615 3.64999 15.06H3.65099Z"
    fill="black"
    fill-opacity="0.75"
  />
</svg>
