<svg
  width="15"
  height="18"
  viewBox="0 0 15 18"
  fill="none"
  xmlns="http://www.w3.org/2000/svg"
>
  <path
    d="M7.72726 10.2611C9.9978 10.2611 11.8451 8.03783 11.8451 5.30474C11.8451 2.71565 10.152 0.906921 7.72726 0.906921C5.30253 0.906921 3.60944 2.71565 3.60944 5.30474C3.60871 8.03783 5.45598 10.2611 7.72726 10.2611ZM7.72726 1.87492C9.61162 1.87492 10.8778 3.2531 10.8778 5.30474C10.8778 7.50401 9.46471 9.2931 7.72726 9.2931C5.9898 9.2931 4.57671 7.50329 4.57671 5.30474C4.57671 3.2531 5.84289 1.87492 7.72726 1.87492ZM8.1738 11.2291H7.28071C3.1978 11.2291 0.454529 13.5746 0.454529 17.0655C0.454529 17.1938 0.505522 17.3169 0.59629 17.4077C0.687058 17.4985 0.810165 17.5495 0.938529 17.5495C1.06689 17.5495 1.19 17.4985 1.28077 17.4077C1.37154 17.3169 1.42253 17.1938 1.42253 17.0655C1.42253 13.4727 4.57817 12.1971 7.28071 12.1971H8.17308C10.8756 12.1971 14.032 13.4727 14.032 17.0655C14.032 17.1938 14.083 17.3169 14.1737 17.4077C14.2645 17.4985 14.3876 17.5495 14.516 17.5495C14.6443 17.5495 14.7675 17.4985 14.8582 17.4077C14.949 17.3169 15 17.1938 15 17.0655C15 13.5746 12.2567 11.2291 8.17308 11.2291H8.1738Z"
    fill="#444444"
  />
</svg>
